<svg width="17" height="17" viewBox="0 0 17 17" fill="none" xmlns="http://www.w3.org/2000/svg">
<path d="M11 1.5C10.2973 1.49984 9.60433 1.66428 8.97662 1.98015C8.34892 2.29603 7.80393 2.75454 7.38533 3.31896C6.96673 3.88337 6.68617 4.538 6.56611 5.23037C6.44606 5.92274 6.48986 6.6336 6.694 7.306L1.5 12.5V15.5H4.5L9.694 10.306C10.313 10.4939 10.9651 10.5461 11.6061 10.4591C12.2471 10.3722 12.8617 10.148 13.4082 9.80202C13.9548 9.45601 14.4202 8.99624 14.773 8.45405C15.1257 7.91187 15.3575 7.3 15.4524 6.66016C15.5472 6.02033 15.5031 5.36755 15.3229 4.74632C15.1427 4.12509 14.8307 3.55002 14.4081 3.06028C13.9855 2.57054 13.4624 2.17766 12.8742 1.90841C12.2861 1.63915 11.6468 1.49985 11 1.5ZM11 9.5C10.6558 9.49991 10.3134 9.44902 9.984 9.349L9.4105 9.175L8.987 9.5985L7.3965 11.189L6.707 10.5L6 11.207L6.6895 11.8965L5.8965 12.6895L5.207 12L4.5 12.707L5.1895 13.3965L4.086 14.5H2.5V12.914L7.401 8.013L7.825 7.5895L7.651 7.016C7.43729 6.3115 7.45117 5.55754 7.69068 4.86138C7.93018 4.16522 8.3831 3.56231 8.98502 3.13841C9.58694 2.71451 10.3072 2.49121 11.0433 2.50027C11.7795 2.50932 12.494 2.75028 13.0854 3.18886C13.6767 3.62744 14.1146 4.24131 14.3369 4.94315C14.5592 5.64499 14.5545 6.39906 14.3236 7.09809C14.0926 7.79712 13.6471 8.40553 13.0504 8.83675C12.4537 9.26797 11.7362 9.50006 11 9.5Z" fill="black"/>
<path d="M11.5 6.5C12.0523 6.5 12.5 6.05228 12.5 5.5C12.5 4.94772 12.0523 4.5 11.5 4.5C10.9477 4.5 10.5 4.94772 10.5 5.5C10.5 6.05228 10.9477 6.5 11.5 6.5Z" fill="black"/>
</svg>
