<svg width="11" height="11" viewBox="0 0 11 11" fill="none" xmlns="http://www.w3.org/2000/svg">
<path d="M5.49996 0.166687C6.2072 0.166687 6.88548 0.447638 7.38558 0.947735C7.88567 1.44783 8.16663 2.12611 8.16663 2.83335C8.16663 3.5406 7.88567 4.21887 7.38558 4.71897C6.88548 5.21907 6.2072 5.50002 5.49996 5.50002C4.79272 5.50002 4.11444 5.21907 3.61434 4.71897C3.11424 4.21887 2.83329 3.5406 2.83329 2.83335C2.83329 2.12611 3.11424 1.44783 3.61434 0.947735C4.11444 0.447638 4.79272 0.166687 5.49996 0.166687ZM5.49996 1.50002C5.14634 1.50002 4.8072 1.6405 4.55715 1.89054C4.3071 2.14059 4.16663 2.47973 4.16663 2.83335C4.16663 3.18698 4.3071 3.52611 4.55715 3.77616C4.8072 4.02621 5.14634 4.16669 5.49996 4.16669C5.85358 4.16669 6.19272 4.02621 6.44277 3.77616C6.69282 3.52611 6.83329 3.18698 6.83329 2.83335C6.83329 2.47973 6.69282 2.14059 6.44277 1.89054C6.19272 1.6405 5.85358 1.50002 5.49996 1.50002ZM5.49996 6.16669C7.27996 6.16669 10.8333 7.05335 10.8333 8.83335V10.8334H0.166626V8.83335C0.166626 7.05335 3.71996 6.16669 5.49996 6.16669ZM5.49996 7.43335C3.51996 7.43335 1.43329 8.40669 1.43329 8.83335V9.56669H9.56663V8.83335C9.56663 8.40669 7.47996 7.43335 5.49996 7.43335Z" fill="black"/>
</svg>
